<svg id="Layer_1" enable-background="new 0 0 512 512" height="512" viewBox="0 0 512 512" width="512" xmlns="http://www.w3.org/2000/svg"><g><g><g><path d="m112.202 504.5v-48.388c0-79.389 64.357-143.746 143.746-143.746 79.389 0 143.746 64.357 143.746 143.746v48.388z" fill="#84c6ff"/><path d="m255.949 312.366c-6.788 0-13.463.481-20 1.392 69.92 9.735 123.747 69.754 123.747 142.355v48.387h40v-48.388c-.001-79.389-64.358-143.746-143.747-143.746z" fill="#72b9f7"/><path d="m184.91 396.365h142.078v108.135h-142.078z" fill="#3a9bf0"/><path d="m205.615 358.751-45.841-23.421c-13.942-7.123-31.018-1.595-38.141 12.346l-16.434 32.166c-7.123 13.942-1.595 31.018 12.346 38.141l84.786 43.318c13.942 7.123 31.018 1.595 38.141-12.346l13.88-27.168 1.596-3.124 15.477 30.292c7.123 13.942 24.199 19.469 38.141 12.346l84.786-43.318c13.942-7.123 19.47-24.199 12.346-38.141l-16.434-32.166c-7.123-13.942-24.2-19.47-38.141-12.346l-52.676 26.913z" fill="#e6f7ff"/><g><path d="m406.699 379.842-16.434-32.166c-7.123-13.942-24.199-19.47-38.141-12.346l-14.901 7.613c1.147 1.447 2.17 3.026 3.042 4.733l16.434 32.166c7.123 13.942 1.595 31.018-12.346 38.141l-69.885 35.705c8.218 10.371 22.865 13.864 35.099 7.613l84.786-43.318c13.941-7.123 19.469-24.2 12.346-38.141z" fill="#d4f1ff"/></g><path d="m391.645 278.527v-92.624c0-74.943-60.753-135.696-135.696-135.696-74.943 0-135.696 60.753-135.696 135.696v92.624c0 50.609 28.163 97.013 73.058 120.374 39.26 20.429 86.016 20.429 125.276 0 44.894-23.362 73.058-69.765 73.058-120.374z" fill="#5c6787"/><path d="m255.949 50.207c-8.542 0-16.896.798-25 2.307 63 11.734 110.696 66.988 110.696 133.389v92.624c0 50.609-28.164 97.012-73.058 120.374-11.989 6.239-24.678 10.562-37.638 12.99 29.48 5.524 60.367 1.201 87.638-12.99 44.895-23.362 73.058-69.765 73.058-120.374v-92.624c0-74.943-60.753-135.696-135.696-135.696z" fill="#4d5a7d"/><g fill="#de9964"><path d="m362.424 202.676c.497 6.999.624 14.022.624 20.696v-20.556c-.213-.043-.412-.096-.624-.14z"/><path d="m370.566 233h-7.518v-9.628c0-6.674-.127-13.697-.624-20.696-21.348-4.436-34.172-15.071-41.584-24.376-4.922-6.179-13.762-7.661-20.418-3.406-8.853 5.658-20.35 6.194-29.677 1.416-9.306-4.767-20.286-4.767-29.592 0-9.469 4.851-21.163 4.218-30.064-1.667-6.708-4.435-15.684-3.375-20.705 2.905-8.13 10.167-21.529 22.073-41.046 25.18-.425 6.987-.488 13.994-.488 20.645v9.627h-7.518c-11.474 0-20.775 9.301-20.775 20.774v.554c0 11.473 9.301 20.774 20.775 20.774h7.518v.711.62c0 .187 0 .374.001.56.11 21.416 24.008 34.327 42.021 22.742 18.768-12.07 41.104-19.073 65.077-19.073s46.309 7.003 65.077 19.073c18.013 11.584 41.911-1.326 42.021-22.742.001-.187.001-.373.001-.56v-.62-.711h7.518c11.474 0 20.775-9.301 20.775-20.774v-.554c0-11.473-9.301-20.774-20.775-20.774z"/></g><path d="m160.449 92.623c0-28.83 28.5-85.123 95.5-85.123 68.333 0 95.5 56.294 95.5 85.123z" fill="#e6f7ff"/><path d="m255.949 7.5c-8.948 0-17.202 1.012-24.8 2.821 49.897 11.733 70.3 57.323 70.3 82.303h50c0-28.83-27.167-85.124-95.5-85.124z" fill="#d4f1ff"/></g><g><g fill="#84c6ff"><path d="m237.61 63.15-72.005 21.364c-19.352 5.742-35.879 18.656-45.729 36.275-6.244 11.169-11.825 25.77-14.497 44.429-1.703 11.888 9.87 21.315 21.158 17.215 33.684-12.234 95.817-42.186 124.601-103.458 4.194-8.928-4.072-18.631-13.528-15.825z"/><path d="m274.288 63.15 72.005 21.364c19.352 5.742 35.879 18.656 45.729 36.275 6.244 11.169 11.825 25.77 14.497 44.429 1.703 11.888-9.87 21.315-21.158 17.215-33.684-12.234-95.817-42.186-124.601-103.458-4.195-8.928 4.071-18.631 13.528-15.825z"/></g><circle cx="255.949" cy="73.167" fill="#f7ce34" r="28.833"/></g></g><g><path d="m415.56 403.779c2.949-9.11 2.174-18.823-2.183-27.349l-16.434-32.167c-2.156-4.219-5.102-7.909-8.648-10.936 7.044-17.056 10.849-35.608 10.849-54.8v-89.184c10.01-3.868 16.317-14.586 14.797-25.188-2.493-17.416-7.666-33.238-15.374-47.026-9.171-16.404-23.449-29.067-40.788-36.424-3.254-17.853-12.929-36.391-26.468-50.383-13.383-13.832-37.323-30.322-75.362-30.322-63.809 0-95.454 47.448-101.791 80.688-17.358 7.354-31.65 20.025-40.829 36.442-7.708 13.788-12.881 29.61-15.374 47.025-1.522 10.615 4.785 21.319 14.797 25.188v89.184c0 19.191 3.805 37.742 10.848 54.797-3.546 3.026-6.489 6.717-8.647 10.94l-16.433 32.165c-7.776 15.221-3.433 34.503 10.224 44.844-2.679 11.365-4.042 23.058-4.042 34.839v48.388c0 9.697 15 9.697 15 0v-48.388c0-9.18.914-18.299 2.72-27.215l10.492 5.361c8.327 4.256 15.439-8.956 6.824-13.357l-18.781-9.596c-9.928-5.073-14.197-18.033-9.08-28.05 5.848-11.447 10.66-25.407 18.616-35.559 13.361 24.249 33.738 44.53 59.355 57.859 17.715 9.218 36.902 14.478 56.3 15.805l-12.355 24.183c-5.23 10.237-17.816 14.31-28.051 9.08l-29.341-14.991c-8.635-4.414-15.459 8.945-6.824 13.357l7.832 4.002v47.51c0 9.697 15 9.697 15 0v-39.846l6.509 3.326c17.419 8.9 39.362 1.75 48.232-15.613l8.798-17.22 8.798 17.22c8.992 17.603 30.633 24.606 48.232 15.613l6.509-3.325v39.844c0 9.697 15 9.697 15 0v-47.509l54.987-28.094c1.806 8.917 2.72 18.035 2.72 27.215v48.388c0 4.142 3.357 7.5 7.5 7.5s7.5-3.358 7.5-7.5v-48.388c0-11.781-1.362-23.474-4.042-34.839 5.8-4.391 10.122-10.429 12.408-17.494zm-30.086-279.33c6.806 12.174 11.388 26.248 13.62 41.833.892 6.228-5.247 11.255-11.173 9.102-14.949-5.429-29.326-12.096-42.731-19.814-8.401-4.842-15.889 8.16-7.484 12.999 14.424 8.305 30.412 16.556 46.439 21.338v39.077c-4.033-2.218-8.661-3.483-13.579-3.483-.043-7.561-.018-15.123-.018-22.684 0-3.573-2.504-6.646-6.007-7.35l-.114-.026c-.156-.037-.313-.073-.475-.106-.001 0-.002 0-.002-.001-19.764-4.106-31.161-14.07-37.243-21.706-7.354-9.23-20.389-11.403-30.325-5.052-6.563 4.196-15.283 4.611-22.217 1.059-11.406-5.843-25.025-5.843-36.432 0-7.057 3.617-15.894 3.126-22.508-1.248-10.114-6.686-23.312-4.763-30.699 4.477-6.967 8.712-18.932 19.681-36.368 22.458-3.472.553-6.093 3.443-6.307 6.952-.469 7.704-.5 15.545-.52 23.228-4.918 0-9.546 1.265-13.579 3.483v-39.077c44.604-13.308 89.015-44.7 115.604-82.659 8.066 2.99 17.112 2.991 25.178.003 9.843 14.052 22.055 27.089 36.387 38.818 7.352 6.018 17.1-5.387 9.5-11.608-13.07-10.696-24.21-22.524-33.195-35.231 6.113-5.931 10.15-13.983 10.913-22.959l52.019 15.434c17.79 5.276 32.463 16.905 41.316 32.743zm-29.926 84.218c.365 8.105.009 16.222 0 24.333 0 4.142 3.357 7.5 7.5 7.5h7.518c7.319 0 13.274 5.955 13.274 13.274v.554c0 7.319-5.955 13.274-13.274 13.274h-7.518c-5.361 0-7.779 4.783-7.502 9.353-.077 15.096-17.7 24.683-30.464 16.473-20.614-13.258-44.521-20.265-69.134-20.265s-48.52 7.007-69.134 20.265c-12.672 8.149-30.386-1.264-30.464-16.474.277-4.57-2.141-9.353-7.502-9.353h-7.518c-7.319 0-13.274-5.955-13.274-13.274v-.554c0-7.319 5.955-13.274 13.274-13.274h7.518c4.143 0 7.5-3.358 7.5-7.5-.017-8.034-.078-16.082.204-24.111 18.877-4.805 31.874-16.886 39.688-26.658 2.512-3.138 7.116-3.709 10.711-1.332 11.228 7.423 25.642 8.222 37.621 2.086 7.122-3.65 15.63-3.649 22.752 0 11.769 6.029 25.998 5.35 37.136-1.771 3.442-2.199 7.963-1.444 10.514 1.759 7.007 8.799 19.83 20.041 40.574 25.695zm-78.266-135.5c0 11.763-9.57 21.333-21.333 21.333s-21.333-9.57-21.333-21.333 9.57-21.333 21.333-21.333 21.333 9.569 21.333 21.333zm-21.333-58.167c25.949 0 48.282 8.905 64.584 25.753 9.44 9.757 16.664 22.023 20.473 34.368l-51.235-15.201c-5.306-13.5-18.461-23.087-33.822-23.087s-28.516 9.586-33.822 23.087l-51.09 15.158c8.642-27.142 35.475-60.078 84.912-60.078zm-143.146 151.281c2.232-15.584 6.814-29.659 13.62-41.833 8.854-15.838 23.526-27.467 41.315-32.745l52.019-15.435c.763 8.97 4.795 17.018 10.902 22.948-30.833 43.617-79.64 66.344-106.683 76.166-5.926 2.153-12.065-2.871-11.173-9.101zm27.731 168.174c-9.439-17.812-12.677-34.787-12.771-55.329 4.031 2.214 8.655 3.477 13.569 3.477 7.458 21.808 30.458 38.324 53.597 23.442 18.189-11.698 39.29-17.881 61.021-17.881s42.831 6.183 61.021 17.881c22.544 14.499 46.931-1.16 53.597-23.442 4.914 0 9.538-1.262 13.569-3.477-.218 47.24-27.099 91.313-69.01 113.122-37.055 19.282-81.298 19.282-118.353 0-25.017-13.017-43.569-33.883-56.24-57.793zm165.621 120.168c-10.238 5.23-22.82 1.156-28.051-9.08l-12.356-24.183c19.398-1.327 38.585-6.587 56.301-15.805 25.617-13.33 45.994-33.611 59.355-57.859 7.966 10.16 12.769 24.116 18.616 35.559 5.14 10.062.874 22.964-9.08 28.05z"/><path d="m205.616 232.284c-4.143 0-7.5 3.358-7.5 7.5v19.883c0 4.142 3.357 7.5 7.5 7.5s7.5-3.358 7.5-7.5v-19.883c0-4.142-3.358-7.5-7.5-7.5z"/><path d="m306.282 232.284c-4.143 0-7.5 3.358-7.5 7.5v19.883c0 4.142 3.357 7.5 7.5 7.5s7.5-3.358 7.5-7.5v-19.883c0-4.142-3.358-7.5-7.5-7.5z"/><path d="m286.253 327.159c2.929-2.929 2.929-7.678-.001-10.607-2.928-2.929-7.677-2.928-10.606 0-5.267 5.267-12.262 8.167-19.697 8.167s-14.431-2.9-19.697-8.167c-2.929-2.928-7.678-2.929-10.606 0-2.93 2.929-2.93 7.678-.001 10.607 8.1 8.1 18.862 12.561 30.305 12.561s22.204-4.461 30.303-12.561z"/><path d="m212.449 446.5c9.652 0 9.668-15 0-15-9.651 0-9.667 15 0 15z"/><path d="m130.449 403.865c9.652 0 9.668-15 0-15-9.651 0-9.667 15 0 15z"/><path d="m170.449 425.5c9.652 0 9.668-15 0-15-9.651 0-9.667 15 0 15z"/><path d="m299.448 431.5c-9.652 0-9.668 15 0 15 9.652 0 9.668-15 0-15z"/><path d="m381.448 388.865c-9.652 0-9.668 15 0 15 9.652 0 9.668-15 0-15z"/><path d="m341.448 410.5c-9.652 0-9.668 15 0 15 9.652 0 9.668-15 0-15z"/></g></g></svg>