<svg id="Layer_1" enable-background="new 0 0 513.404 513.404" height="512" viewBox="0 0 513.404 513.404" width="512" xmlns="http://www.w3.org/2000/svg"><g><g><path d="m112.955 506.131v-48.388c0-79.389 64.357-143.746 143.746-143.746 79.389 0 143.746 64.357 143.746 143.746v48.388z" fill="#47b36b"/><path d="m256.702 313.997c-6.788 0-13.463.481-20 1.392 69.921 9.735 123.746 69.754 123.746 142.355v48.388h40v-48.388c0-79.39-64.357-143.747-143.746-143.747z" fill="#3ea862"/><path d="m185.663 397.995h142.078v108.135h-142.078z" fill="#a0ebb4"/><path d="m407.452 381.473-16.434-32.166c-7.123-13.942-24.2-19.47-38.141-12.346l-84.786 43.318c-4.898 2.502-8.752 6.236-11.389 10.628-2.637-4.392-6.491-8.125-11.389-10.628l-84.786-43.318c-13.942-7.123-31.018-1.595-38.141 12.346l-16.434 32.166c-7.123 13.942-1.595 31.018 12.346 38.141l84.786 43.318c13.942 7.123 31.018 1.595 38.141-12.346l13.88-27.168 1.596-3.124 15.477 30.292c7.123 13.942 24.199 19.47 38.141 12.346l84.786-43.318c13.942-7.123 19.47-24.2 12.347-38.141z" fill="#e6f7ff"/><g><path d="m407.452 381.473-16.434-32.166c-7.123-13.942-24.2-19.47-38.141-12.346l-14.901 7.613c1.147 1.447 2.17 3.026 3.042 4.733l16.434 32.166c7.123 13.942 1.595 31.018-12.346 38.141l-69.885 35.705c8.218 10.371 22.864 13.864 35.099 7.613l84.786-43.318c13.941-7.123 19.469-24.2 12.346-38.141z" fill="#d4f1ff"/></g><path d="m420.135 307.45c0-18.464-11.377-34.262-27.499-40.792.018-.845.032-1.691.032-2.54v-74.325c0-75.077-60.862-135.939-135.94-135.939h-.053c-75.077 0-135.94 60.862-135.94 135.939v74.325c0 .849.014 1.695.032 2.54-16.122 6.53-27.499 22.328-27.499 40.792 0 22.837 17.398 41.608 39.662 43.789-.306 2.04-.396 4.144-.227 6.289 1.196 15.193 14.483 26.54 29.676 25.344 4.553-.359 8.756-1.809 12.384-4.065-.033 1.017-.015 2.046.067 3.084 1.196 15.193 14.483 26.54 29.676 25.343 7.19-.566 13.515-3.842 18.061-8.744 8.43 9.292 20.6 15.128 34.134 15.128s25.704-5.836 34.134-15.128c4.545 4.902 10.871 8.178 18.061 8.744 15.193 1.196 28.48-10.15 29.676-25.343.082-1.039.1-2.067.067-3.084 3.628 2.256 7.831 3.706 12.384 4.065 15.193 1.196 28.48-10.15 29.676-25.344.169-2.145.079-4.249-.227-6.289 22.265-2.181 39.663-20.952 39.663-43.789z" fill="#de9964"/><path d="m420.135 307.45c0-18.464-11.377-34.262-27.499-40.792.019-.845.032-1.691.032-2.54v-74.325c0-75.077-60.862-135.939-135.94-135.939h-.053c-8.532 0-16.877.794-24.974 2.297 63.148 11.727 110.966 67.097 110.966 133.642v74.325c0 .849-.014 1.695-.032 2.54 16.122 6.53 27.499 22.328 27.499 40.792 0 22.837-17.398 41.608-39.662 43.789.306 2.04.396 4.144.227 6.289-1.196 15.193-14.483 26.54-29.676 25.344-4.553-.359-8.756-1.809-12.384-4.065.033 1.018.015 2.046-.067 3.084-1.196 15.193-14.483 26.54-29.676 25.344-7.19-.566-13.515-3.842-18.061-8.744-2.689 2.964-5.761 5.572-9.134 7.755 7.201 4.662 15.783 7.373 25 7.373 13.534 0 25.704-5.836 34.134-15.128 4.545 4.902 10.871 8.178 18.061 8.744 15.193 1.196 28.48-10.15 29.676-25.344.082-1.039.1-2.067.067-3.084 3.628 2.256 7.831 3.707 12.384 4.065 15.193 1.196 28.479-10.15 29.676-25.344.169-2.145.079-4.249-.227-6.289 22.265-2.181 39.663-20.952 39.663-43.789z" fill="#d68d56"/><g><path d="m371.319 234.631h-7.518v-9.628c0-30.619-2.663-68.609-31.503-77.717-31.77-10.034-47 21.186-75.424 21.186h-.343c-28.283 0-42.314-29.86-73.125-21.453-32.489 8.865-33.803 47.226-33.803 77.985v9.628h-7.518c-11.474 0-20.775 9.301-20.775 20.774v.554c0 11.473 9.301 20.774 20.775 20.774h7.518v1.332c0 .187 0 .374.001.56.11 21.416 24.008 34.327 42.021 22.742 18.768-12.07 41.104-19.073 65.077-19.073s46.309 7.003 65.077 19.073c18.013 11.584 41.911-1.326 42.021-22.742.001-.187.001-.373.001-.56v-1.332h7.518c11.474 0 20.775-9.301 20.775-20.774v-.554c0-11.474-9.301-20.775-20.775-20.775z" fill="#ffd7c2"/></g><path d="m161.202 72.623c0-28.83 42.757-65.123 95.5-65.123s95.5 36.294 95.5 65.123z" fill="#47b36b"/><path d="m311.909 72.99-55.207-55.106-55.207 55.106-55.207-49.165v86.867h220.827v-86.867z" fill="#f7ce34"/><g><path d="m317.115 68.354v42.338h50v-86.867z" fill="#f5c100"/></g></g><g><path d="m401.099 352.553c15.958-8.79 26.536-25.727 26.536-45.103 0-19.336-10.624-36.701-27.467-45.555v-72.101c0-29.445-8.843-57.632-25.552-81.691v-84.278c0-6.352-7.745-9.824-12.488-5.601l-19.474 17.343c-20.096-21.807-52.892-35.567-85.952-35.567-32.788 0-65.814 13.807-85.95 35.568l-19.475-17.344c-4.744-4.221-12.488-.752-12.488 5.601v84.277c-16.709 24.06-25.552 52.247-25.552 81.691v72.101c-16.843 8.854-27.467 26.219-27.467 45.555 0 19.376 10.578 36.312 26.536 45.103l-13.033 25.508c-7.776 15.221-3.433 34.503 10.224 44.844-2.679 11.365-4.042 23.058-4.042 34.839v48.388c0 9.697 15 9.697 15 0v-48.388c0-9.18.914-18.299 2.72-27.215l54.987 28.094v47.509c0 9.697 15 9.697 15 0v-39.845c19.173 10.579 43.646 9.429 54.741-12.288l8.798-17.22 8.798 17.22c11.086 21.699 35.602 22.925 54.741 12.288v39.845c0 9.697 15 9.697 15 0v-47.51l10.039-5.129c8.635-4.413 1.812-17.767-6.824-13.357l-31.548 16.119c-10.239 5.23-22.821 1.156-28.051-9.08l-13.666-26.748c9.529-1.537 18.507-5.619 25.921-11.824 5.052 3.497 10.962 5.62 17.195 6.11 16.896 1.323 31.971-9.587 36.484-25.277 10.783 2.663 22.74-.169 31.188-7.385 6.68-5.705 10.903-13.526 12.014-22.178l12.779 25.014c5.14 10.062.874 22.964-9.08 28.05l-18.781 9.596c-8.464 4.324-1.604 17.662 6.824 13.357l10.492-5.361c1.806 8.917 2.72 18.035 2.72 27.215v48.388c0 9.697 15 9.697 15 0v-48.388c0-11.781-1.362-23.474-4.042-34.839 13.657-10.34 18.001-29.622 10.224-44.843zm-69.668-306.992-19.229 17.125-47.459-47.373c28.823 2.165 52.938 15.647 66.688 30.248zm-82.759-30.259-47.47 47.384-19.23-17.125c12.883-13.692 36.38-28.053 66.7-30.259zm-98.623 102.889h30.992c10.127 0 9.196-16.282-.96-15h-26.293v-62.644l42.719 38.044c2.965 2.641 7.475 2.513 10.287-.293l49.908-49.817 49.908 49.817c2.811 2.806 7.32 2.933 10.287.293l42.719-38.044v62.644h-137.62c-9.469-1.205-12.158 15-.96 15h142.319c14.274 21.196 21.812 45.861 21.812 71.602v40.975c-4.096-2.312-8.819-3.638-13.849-3.638.043-17.096-.384-34.658-5.262-51.177-5.591-18.933-16.189-30.984-31.501-35.82-21.211-6.7-36.285 2.282-49.585 10.205-21.035 12.532-35.49 12.673-56.457.057-12.572-7.566-26.819-16.142-47.084-10.613-38.092 10.393-39.382 55.071-39.346 87.348-5.03 0-9.752 1.326-13.849 3.638v-40.975c.002-25.74 7.541-50.406 21.815-71.602zm213.753 123.94h7.518c7.722 0 13.025 6.569 13.274 13.828 0 7.319-5.955 13.274-13.274 13.274h-7.518c-4.143 0-7.5 3.358-7.5 7.5.925 15.896-16.699 27.182-30.466 18.326-20.614-13.258-44.521-20.265-69.134-20.265s-48.52 7.007-69.134 20.265c-13.768 8.853-31.391-2.429-30.466-18.326 0-4.142-3.357-7.5-7.5-7.5h-7.518c-7.722 0-13.025-6.569-13.274-13.828 0-7.319 5.955-13.274 13.274-13.274h7.518c4.143 0 7.5-3.358 7.5-7.5v-9.628c0-31.895 2.184-63.63 28.277-70.75 14.069-3.84 23.957 2.107 35.4 8.994 25.855 15.559 45.957 15.415 71.869-.022 12.124-7.223 22.593-13.46 37.39-8.788 12.986 4.102 26.263 15.693 26.263 70.565v9.628c.001 4.143 3.358 7.501 7.501 7.501zm-129.255 205.042c-5.23 10.237-17.816 14.31-28.051 9.08l-84.785-43.318c-9.928-5.073-14.197-18.033-9.08-28.05l12.779-25.013c1.11 8.651 5.333 16.473 12.014 22.178 8.443 7.211 20.408 10.046 31.188 7.385 4.511 15.688 19.588 26.607 36.484 25.277 6.233-.491 12.144-2.614 17.195-6.11 7.414 6.206 16.392 10.288 25.92 11.824zm140.009-100.544c-1.264 1.622-1.807 3.691-1.501 5.725 2.487 16.492-16.17 28.963-30.456 20.083-8.301-5.162-11.091 3.579-11.503 8.864-1.344 17.018-23.036 24.734-34.762 12.089-3.702-3.22-7.387-3.2-11.054.061-7.303 8.05-17.72 12.667-28.579 12.667s-21.276-4.617-28.579-12.667c-2.956-3.259-8.066-3.283-11.054-.061-11.727 12.645-33.419 4.939-34.761-12.083-.416-5.284-3.195-14.036-11.504-8.87-12.488 7.762-29.473-.911-30.623-15.498-.393-4.995 1.046-12.423-6.519-13.165-18.752-1.837-32.894-17.454-32.894-36.325 0-13.993 7.854-26.529 20.233-32.677 5.182 5.8 12.711 9.46 21.083 9.46 7.458 21.808 30.458 38.324 53.597 23.442 18.189-11.698 39.29-17.881 61.021-17.881s42.831 6.183 61.021 17.881c22.544 14.499 46.931-1.16 53.597-23.442 8.372 0 15.901-3.66 21.083-9.46 12.379 6.147 20.233 18.684 20.233 32.677 0 18.871-14.142 34.488-32.894 36.325-2.046.202-3.921 1.233-5.185 2.855z"/><path d="m206.369 233.915c-4.143 0-7.5 3.358-7.5 7.5v19.883c0 4.142 3.357 7.5 7.5 7.5s7.5-3.358 7.5-7.5v-19.883c0-4.143-3.358-7.5-7.5-7.5z"/><path d="m307.035 233.915c-4.143 0-7.5 3.358-7.5 7.5v19.883c0 4.142 3.357 7.5 7.5 7.5s7.5-3.358 7.5-7.5v-19.883c0-4.143-3.358-7.5-7.5-7.5z"/><path d="m276.399 318.183c-5.267 5.267-12.262 8.167-19.697 8.167s-14.431-2.9-19.697-8.167c-2.929-2.928-7.678-2.929-10.606 0-2.93 2.929-2.93 7.678-.001 10.607 8.1 8.1 18.862 12.561 30.305 12.561s22.205-4.461 30.305-12.561c2.929-2.929 2.929-7.678-.001-10.607-2.929-2.929-7.678-2.929-10.608 0z"/><path d="m213.203 433.131c-9.652 0-9.668 15 0 15 9.651 0 9.667-15 0-15z"/><path d="m131.203 390.495c-9.652 0-9.668 15 0 15 9.651 0 9.667-15 0-15z"/><path d="m171.203 412.131c-9.652 0-9.668 15 0 15 9.651 0 9.667-15 0-15z"/><path d="m300.201 448.131c9.652 0 9.668-15 0-15-9.652 0-9.668 15 0 15z"/><path d="m382.201 390.495c-9.652 0-9.668 15 0 15 9.652 0 9.668-15 0-15z"/><path d="m342.201 427.131c9.652 0 9.668-15 0-15-9.652 0-9.668 15 0 15z"/></g></g></svg>