<svg id="Layer_1" enable-background="new 0 0 511.773 511.773" height="512" viewBox="0 0 511.773 511.773" width="512" xmlns="http://www.w3.org/2000/svg"><g><g><g><path d="m112.089 504.5v-48.388c0-79.389 64.357-143.746 143.746-143.746 79.389 0 143.746 64.357 143.746 143.746v48.388z" fill="#de0d3a"/><path d="m184.796 396.365h142.078v108.135h-142.078z" fill="#ff595f"/><path d="m406.585 379.842-16.434-32.166c-7.123-13.942-24.2-19.47-38.141-12.346l-84.786 43.318c-4.898 2.502-8.752 6.236-11.389 10.628-2.637-4.392-6.491-8.125-11.389-10.628l-84.786-43.318c-13.942-7.123-31.018-1.595-38.141 12.346l-16.434 32.166c-7.123 13.942-1.595 31.018 12.346 38.141l84.786 43.318c13.942 7.123 31.018 1.595 38.141-12.346l13.88-27.168 1.596-3.124 15.477 30.292c7.123 13.942 24.199 19.47 38.141 12.346l84.786-43.318c13.943-7.123 19.47-24.2 12.347-38.141z" fill="#e6f7ff"/><g><path d="m406.585 379.842-16.434-32.166c-7.123-13.942-24.2-19.469-38.141-12.346l-14.901 7.613c1.147 1.447 2.17 3.026 3.042 4.733l16.434 32.166c7.123 13.942 1.596 31.018-12.346 38.141l-69.885 35.705c8.218 10.371 22.864 13.864 35.099 7.613l84.786-43.318c13.942-7.123 19.469-24.2 12.346-38.141z" fill="#d4f1ff"/></g><path d="m182.431 381.229c-38.066-15.951-62.822-53.205-62.778-94.477.043-39.857.216-83.947.216-98.589 0-75.077 60.862-135.939 135.939-135.939h.053c75.077 0 135.94 60.862 135.94 135.939 0 14.643.173 58.732.216 98.589.045 41.272-24.712 78.526-62.778 94.477l-73.404 30.759z" fill="#fff3db"/><path d="m391.801 188.163c0-75.077-60.862-135.939-135.94-135.939h-.053c-8.532 0-16.877.794-24.974 2.297 63.148 11.727 110.966 67.097 110.966 133.642 0 14.643.173 58.732.216 98.589.045 41.272-24.712 78.526-62.778 94.477l-48.404 20.283 25 10.476 73.404-30.759c38.066-15.951 62.822-53.205 62.778-94.477-.042-39.857-.215-83.947-.215-98.589z" fill="#fae9c8"/><g><path d="m370.452 233h-7.518v-9.628c0-30.619-2.663-68.609-31.503-77.717-31.77-10.034-47 21.186-75.424 21.186h-.343c-28.283 0-42.314-29.86-73.125-21.453-32.489 8.865-33.803 47.226-33.803 77.985v9.627h-7.518c-11.474 0-20.775 9.301-20.775 20.775v.554c0 11.473 9.301 20.774 20.775 20.774h7.518v1.332c0 .187 0 .374.001.56.11 21.416 24.008 34.327 42.021 22.742 18.768-12.07 41.104-19.073 65.077-19.073s46.309 7.003 65.077 19.073c18.013 11.584 41.911-1.326 42.021-22.742.001-.187.001-.373.001-.56v-1.332h7.518c11.473 0 20.775-9.301 20.775-20.774v-.554c0-11.474-9.301-20.775-20.775-20.775z" fill="#ffd7c2"/></g><path d="m311.042 52.606-55.207-45.106-55.207 45.106-55.206-39.165v86.866h220.827v-86.866z" fill="#f7ce34"/><g><path d="m316.249 48.913v51.394h50v-86.866z" fill="#f5c100"/></g></g><path d="m369.795 119.453h-227.919c-7.982 0-14.453-6.471-14.453-14.453 0-7.982 6.471-14.453 14.453-14.453h227.919c7.982 0 14.453 6.471 14.453 14.453-.001 7.982-6.471 14.453-14.453 14.453z" fill="#ff595f"/><path d="m369.795 90.547h-50c7.982 0 14.453 6.471 14.453 14.453s-6.471 14.453-14.453 14.453h50c7.982 0 14.453-6.471 14.453-14.453s-6.471-14.453-14.453-14.453z" fill="#ff4249"/></g><g><path d="m415.447 403.779c2.949-9.11 2.174-18.823-2.183-27.35l-16.434-32.165c-2.014-3.942-4.724-7.436-7.972-10.354 6.907-14.536 10.677-30.618 10.659-47.167-.036-32.86-.216-65.721-.216-98.581 0-22.992-5.527-45.602-16.01-65.868 14.642-11.452 8.703-35.549-9.542-38.884v-69.969c0-5.98-6.962-9.576-11.839-6.117l-50.546 35.859-50.784-41.491c-2.761-2.256-6.729-2.256-9.49 0l-50.783 41.491-50.546-35.859c-4.876-3.461-11.839.139-11.839 6.117v69.969c-18.239 3.334-24.182 27.418-9.554 38.875-10.477 20.253-15.999 42.919-15.999 65.877 0 32.86-.18 65.721-.216 98.582-.018 16.723 3.721 32.789 10.573 47.241-3.21 2.902-5.889 6.371-7.885 10.279l-16.434 32.165c-7.776 15.221-3.433 34.502 10.223 44.843-2.679 11.366-4.041 23.059-4.041 34.84v48.388c0 9.697 15 9.697 15 0v-48.388c0-9.18.914-18.299 2.72-27.215l54.987 28.094v47.51c0 9.697 15 9.697 15 0v-39.846l6.509 3.326c17.403 8.893 39.341 1.789 48.232-15.613l8.798-17.219 8.798 17.219c8.898 17.415 30.794 24.522 48.232 15.613l6.509-3.326v39.845c0 9.697 15 9.697 15 0v-47.51l54.987-28.094c1.806 8.917 2.72 18.035 2.72 27.215v48.389c0 9.697 15 9.697 15 0v-48.388c0-11.781-1.362-23.474-4.041-34.84 5.799-4.39 10.12-10.428 12.407-17.493zm-273.571-305.732h38.754c9.697 0 9.697-15 0-15h-27.708v-55.09l43.367 30.766c2.753 1.953 6.472 1.826 9.085-.309l50.462-41.229 50.462 41.229c2.613 2.135 6.332 2.262 9.085.309l43.367-30.766v55.09h-138.805c-9.697 0-9.697 15 0 15h149.85c8.987 0 8.987 13.906 0 13.906h-227.919c-8.988 0-8.988-13.906 0-13.906zm-14.507 90.116c0-21.409 5.368-42.525 15.513-61.21h225.924c10.149 18.702 15.495 39.772 15.495 61.21 0 6.421.033 18.502.074 33.406.007 2.467.014 5.015.021 7.624-4.118-2.345-8.875-3.693-13.944-3.693.042-17.096-.384-34.658-5.262-51.177-5.591-18.933-16.189-30.984-31.501-35.82-21.214-6.701-36.286 2.281-49.585 10.205-21.034 12.532-35.491 12.674-56.457.056-12.573-7.565-26.822-16.14-47.083-10.612-38.095 10.393-39.379 55.071-39.347 87.348-5.068 0-9.826 1.347-13.944 3.693.007-2.609.014-5.157.021-7.624.042-14.904.075-26.985.075-33.406zm235.565 52.337h7.518c7.722 0 13.025 6.569 13.274 13.828 0 7.319-5.955 13.274-13.274 13.274h-7.518c-5.361 0-7.779 4.783-7.501 9.353-.077 15.096-17.7 24.683-30.464 16.473-41.588-26.746-96.677-26.748-138.267 0-12.672 8.149-30.387-1.264-30.464-16.474.277-4.57-2.14-9.353-7.501-9.353h-7.518c-7.319 0-13.274-5.955-13.274-13.274v-.554c0-7.319 5.955-13.274 13.274-13.274h7.518c4.142 0 7.5-3.358 7.5-7.5-.068-25.65-3.9-71.598 28.277-80.377 14.075-3.841 23.957 2.107 35.4 8.994 25.855 15.558 45.957 15.416 71.869-.022 12.124-7.223 22.595-13.46 37.39-8.788 29.772 9.403 26.412 56.292 26.262 80.193-.001 4.143 3.357 7.501 7.499 7.501zm-129.254 205.042c-5.073 9.928-18.033 14.197-28.05 9.08l-84.786-43.318c-9.927-5.072-14.198-18.034-9.08-28.05l16.434-32.166c.631-1.235 1.384-2.391 2.233-3.464 11.73 17.67 28.596 31.929 49.102 40.522l68.753 28.809zm72.361 9.081c-10.062 5.14-22.964.874-28.05-9.08l-14.606-28.587 45.682-19.142c8.944-3.748 3.149-17.578-5.797-13.835l-47.435 19.876-70.506-29.544c-20.012-8.385-36.005-23.024-46.121-41.099-.124-.289-.261-.574-.425-.852-.06-.102-.129-.194-.193-.292-7.373-13.61-11.455-29.099-11.437-45.309.003-2.623.006-5.264.01-7.914 4.144 2.385 8.941 3.756 14.055 3.756 7.46 21.819 30.358 38.389 53.598 23.442 36.735-23.626 85.304-23.626 122.04 0 22.46 14.444 46.935-1.171 53.597-23.442 5.114 0 9.911-1.372 14.055-3.756.004 2.65.007 5.292.01 7.914.036 33.61-17.96 65.016-46.965 81.96-8.171 4.773-.677 17.768 7.566 12.952 14.679-8.575 26.923-20.349 36.055-34.135.877 1.097 1.651 2.283 2.299 3.551l16.434 32.166c5.141 10.061.873 22.965-9.08 28.05z"/><path d="m205.502 232.284c-4.142 0-7.5 3.358-7.5 7.5v19.883c0 4.142 3.358 7.5 7.5 7.5s7.5-3.358 7.5-7.5v-19.883c0-4.142-3.358-7.5-7.5-7.5z"/><path d="m306.169 232.284c-4.142 0-7.5 3.358-7.5 7.5v19.883c0 4.142 3.358 7.5 7.5 7.5s7.5-3.358 7.5-7.5v-19.883c0-4.142-3.358-7.5-7.5-7.5z"/><path d="m275.533 316.552c-10.861 10.861-28.535 10.861-39.396 0-2.929-2.929-7.678-2.929-10.606 0-2.929 2.929-2.929 7.678 0 10.606 8.355 8.355 19.33 12.533 30.305 12.533s21.95-4.178 30.305-12.533c2.929-2.929 2.929-7.678 0-10.606-2.93-2.928-7.679-2.928-10.608 0z"/><path d="m212.336 431.5c-9.652 0-9.668 15 0 15 9.652 0 9.668-15 0-15z"/><path d="m130.336 388.865c-9.652 0-9.668 15 0 15 9.652 0 9.668-15 0-15z"/><path d="m170.336 410.5c-9.652 0-9.668 15 0 15 9.652 0 9.668-15 0-15z"/><path d="m299.335 431.5c-9.652 0-9.668 15 0 15 9.651 0 9.667-15 0-15z"/><path d="m381.335 388.865c-9.652 0-9.668 15 0 15 9.651 0 9.667-15 0-15z"/><path d="m341.335 410.5c-9.652 0-9.668 15 0 15 9.651 0 9.667-15 0-15z"/><path d="m255.835 65.833c9.652 0 9.668-15 0-15-9.652 0-9.668 15 0 15z"/></g></g></svg>